<?xml version="1.0" encoding="UTF-8" standalone="no"?>
<svg
   xmlns:dc="http://purl.org/dc/elements/1.1/"
   xmlns:cc="http://creativecommons.org/ns#"
   xmlns:rdf="http://www.w3.org/1999/02/22-rdf-syntax-ns#"
   xmlns:svg="http://www.w3.org/2000/svg"
   xmlns="http://www.w3.org/2000/svg"
   xmlns:sodipodi="http://sodipodi.sourceforge.net/DTD/sodipodi-0.dtd"
   xmlns:inkscape="http://www.inkscape.org/namespaces/inkscape"
   id="Capa_1"
   enable-background="new 0 0 512 512"
   height="512"
   viewBox="0 0 512 512"
   width="512"
   version="1.1"
   sodipodi:docname="around-the-world.svg"
   inkscape:version="1.0.1 (c497b03c, 2020-09-10)">
  <metadata
     id="metadata35">
    <rdf:RDF>
      <cc:Work
         rdf:about="">
        <dc:format>image/svg+xml</dc:format>
        <dc:type
           rdf:resource="http://purl.org/dc/dcmitype/StillImage" />
        <dc:title></dc:title>
      </cc:Work>
    </rdf:RDF>
  </metadata>
  <defs
     id="defs33" />
  <sodipodi:namedview
     pagecolor="#ffffff"
     bordercolor="#666666"
     borderopacity="1"
     objecttolerance="10"
     gridtolerance="10"
     guidetolerance="10"
     inkscape:pageopacity="0"
     inkscape:pageshadow="2"
     inkscape:window-width="1440"
     inkscape:window-height="855"
     id="namedview31"
     showgrid="false"
     inkscape:zoom="1.2649192"
     inkscape:cx="273.7877"
     inkscape:cy="254.41887"
     inkscape:window-x="0"
     inkscape:window-y="23"
     inkscape:window-maximized="1"
     inkscape:current-layer="Capa_1" />
  <g
     id="g26"
     transform="matrix(1,0,0,0.94216125,0,16.173847)"
     inkscape:export-filename="/Users/craig/Documents/Dev/Rust_Projects/timezoners/32x32.png"
     inkscape:export-xdpi="6.3499999"
     inkscape:export-ydpi="6.3499999">
    <path
       d="m 256,135.038 c -90.106,0 -132.869,46.717 -132.869,136.849 0,28.881 -23.017,60.557 -9.822,84.127 19.308,34.49 50.751,61.304 88.505,74.615 16.964,5.981 48.736,-42.528 67.72,-42.528 87.196,0 116.946,-38.343 149.651,-103.02 1.298,-2.568 0.227,-5.766 0.227,-8.676 0,-69.634 -43.756,-129.238 -105.209,-152.747 -18.089,-6.918 -37.711,11.38 -58.203,11.38 z"
       fill="#00c8c8"
       id="path10" />
    <path
       d="m 314.204,123.66 c -16.657,-6.372 -34.615,8.628 -53.354,11.045 V 390.69 c 3.096,-1.63 6.016,-2.588 8.683,-2.588 87.196,0 116.946,-38.343 149.651,-103.02 1.298,-2.568 0.227,-5.766 0.227,-8.676 10e-4,-69.634 -43.754,-129.238 -105.207,-152.746 z"
       fill="#00a0aa"
       id="path12" />
    <path
       d="M 431.869,104.477 C 393.907,64.227 344.028,38.535 289.847,30.946 l 5.339,-5.339 c 5.858,-5.858 5.858,-15.355 0,-21.213 -5.857,-5.859 -15.355,-5.857 -21.213,0 l -28.579,28.58 c -5.858,5.857 -5.858,15.355 0,21.213 l 28.579,28.58 c 2.929,2.93 6.768,4.394 10.606,4.394 3.838,0 7.678,-1.465 10.606,-4.394 5.604,-5.604 5.833,-14.53 0.714,-20.423 98.236,18.75 171.81,105.425 171.81,207.946 C 467.71,387.028 372.737,482 256,482 139.263,482 44.29,387.028 44.29,270.29 c 0,-44.544 13.671,-87.154 39.535,-123.225 25.327,-35.321 60.244,-61.677 100.976,-76.219 7.802,-2.786 11.868,-11.368 9.083,-19.171 C 191.099,43.873 182.516,39.809 174.713,42.592 128.205,59.196 88.347,89.278 59.445,129.583 29.904,170.781 14.29,219.437 14.29,270.29 c 0,64.563 25.143,125.262 70.795,170.915 C 130.738,486.858 191.437,512 256,512 c 64.563,0 125.262,-25.143 170.914,-70.795 45.653,-45.653 70.796,-106.352 70.796,-170.915 0,-61.908 -23.383,-120.796 -65.841,-165.813 z"
       fill="#ff4d4d"
       id="path14" />
    <path
       d="m 201.815,430.617 c 16.965,5.982 35.199,9.248 54.185,9.248 87.196,0 158.657,-68.669 163.182,-154.783 -0.213,-0.015 -0.427,-0.029 -0.637,-0.044 -20.049,-1.375 -22.759,-1.376 -25.654,-0.778 0,0 0,0 -0.001,0 l -21.249,4.386 c -5.562,1.149 -11.226,-0.426 -15.53,-4.321 -10.368,-9.383 -24.209,-13.782 -37.966,-12.077 -13.86,1.72 -26.314,9.458 -34.168,21.229 l -22.894,34.313 c -2.307,3.459 -5.686,6.065 -9.513,7.339 l -14.782,4.921 c -21.688,7.22 -35.602,29.247 -33.084,52.375 l 2.087,19.172 c 0.193,1.769 0.153,3.554 -0.118,5.313 z"
       fill="#bce339"
       id="path16" />
    <path
       d="m 256,112.948 c -90.106,0 -163.413,73.327 -163.413,163.459 0,28.882 7.537,56.032 20.733,79.603 l 25.19,-32.393 c 0.82,-1.055 2.252,-1.42 3.477,-0.886 l 22.8,9.932 c 14.284,6.223 30.81,4.159 43.124,-5.387 12.316,-9.545 18.437,-25.033 15.974,-40.419 -0.621,-3.877 0.563,-7.746 3.246,-10.613 l 17.904,-19.135 c 7.415,-7.924 11.498,-18.265 11.498,-29.116 v -17.908 c 0,-6.014 4.245,-11.191 10.142,-12.371 l 13.266,-2.653 c 19.919,-3.984 34.257,-21.474 34.257,-41.787 V 123.67 C 296.109,116.751 276.491,112.948 256,112.948 Z"
       fill="#bce339"
       id="path18" />
    <g
       fill="#8cbb41"
       id="g24">
      <path
         d="m 392.891,284.26 -21.25,4.386 c -5.562,1.149 -11.226,-0.426 -15.53,-4.321 -10.368,-9.383 -24.209,-13.782 -37.966,-12.077 -13.86,1.72 -26.314,9.458 -34.168,21.229 l -22.894,34.313 c -0.073,0.11 -0.157,0.212 -0.233,0.32 v 111.677 c 84.981,-2.491 153.891,-70.193 158.332,-154.705 -0.213,-0.015 -0.427,-0.029 -0.637,-0.044 -20.049,-1.375 -22.759,-1.376 -25.654,-0.778 z"
         id="path20" />
      <path
         d="m 260.85,200.594 c 1.617,-1.418 3.605,-2.438 5.825,-2.881 l 13.266,-2.653 c 19.85,-3.971 34.257,-21.545 34.257,-41.788 V 123.67 c -16.656,-6.372 -34.61,-10.092 -53.347,-10.643 v 87.567 z"
         id="path22" />
    </g>
  </g>
  <path
     d="m 289.847,45.329969 5.339,-5.030199 c 5.858,-5.519181 5.858,-14.466886 0,-19.986067 -5.857,-5.520123 -15.355,-5.518238 -21.213,0 l -28.579,26.926969 c -5.858,5.518238 -5.858,14.466886 0,19.986066 l 28.579,26.926968 c 2.929,2.76053 6.768,4.13986 10.606,4.13986 3.838,0 7.678,-1.38027 10.606,-4.13986 5.604,-5.27987 5.833,-13.689602 0.714,-19.241758 98.236,17.665528 171.81,99.327352 171.81,195.918662 0,108.45784 -92.354,196.96918 -206.86,199.40655 v 28.26672 c 62.748,-1.15603 121.557,-24.71195 166.064,-66.64472 45.653,-43.01249 70.796,-100.20073 70.796,-161.02949 0,-58.32732 -23.383,-113.80931 -65.841,-156.22258 C 393.907,76.686037 344.028,52.479088 289.847,45.329969 Z"
     fill="#cc2929"
     id="path28"
     style="stroke-width:0.97065"
     inkscape:export-filename="/Users/craig/Documents/Dev/Rust_Projects/timezoners/32x32.png"
     inkscape:export-xdpi="6.3499999"
     inkscape:export-ydpi="6.3499999" />
</svg>
